<svg width="149" height="109" viewBox="0 0 149 109" fill="none" xmlns="http://www.w3.org/2000/svg">
<ellipse cx="74.7467" cy="54.5" rx="54.4518" ry="54.5" fill="#FF7514"/>
<path d="M16.9612 38.1442V43.0977H0V13.8077H16.5307V18.7611H5.16585V25.7821H15.2392V30.7356H5.16585V38.1442H16.9612Z" fill="white"/>
<path d="M23.0798 43.0977V13.8077H27.8152C30.0824 16.7654 32.2349 19.8954 34.2725 23.1977C36.3101 26.4713 38.1612 29.8454 39.8258 33.32L39.4383 24.5761V13.8077H44.3889V43.0977H39.6536C37.8168 39.4795 35.9083 35.847 33.9281 32.2001C31.9766 28.5245 29.8959 25.0642 27.686 21.8194L28.0304 31.8986V43.0977H23.0798Z" fill="white"/>
<path d="M69.4268 38.1442V43.0977H52.4656V13.8077H68.9963V18.7611H57.6315V25.7821H67.7049V30.7356H57.6315V38.1442H69.4268Z" fill="white"/>
<path d="M80.7113 32.3293V43.0977H75.5454V13.8077H85.3175C88.2735 13.8077 90.5407 14.5687 92.1192 16.0906C93.7263 17.5838 94.5299 19.5939 94.5299 22.1209V23.973C94.5299 25.6386 94.1712 27.1031 93.4537 28.3665C92.7362 29.63 91.7031 30.592 90.3542 31.2525C92.7075 35.2727 94.7165 39.2211 96.381 43.0977H90.4833C89.0484 39.5082 87.3408 35.9188 85.3605 32.3293H80.7113ZM85.3175 18.5458H80.7113V27.5912H85.3175C86.5803 27.5912 87.5417 27.2754 88.2018 26.6436C88.8905 25.9831 89.2349 25.093 89.2349 23.973V22.1209C89.2349 21.0297 88.8905 20.1682 88.2018 19.5365C87.5417 18.876 86.5803 18.5458 85.3175 18.5458Z" fill="white"/>
<path d="M121.15 41.2025C120.433 41.6332 119.242 42.1357 117.577 42.71C115.941 43.2556 114.018 43.5284 111.809 43.5284C109.312 43.5284 107.217 43.0116 105.523 41.9778C103.859 40.944 102.596 39.5226 101.735 37.7135C100.874 35.9044 100.444 33.8369 100.444 31.5109V25.3514C100.444 22.968 100.874 20.8861 101.735 19.1057C102.596 17.2966 103.873 15.8896 105.567 14.8845C107.288 13.8795 109.441 13.377 112.024 13.377C113.287 13.377 114.592 13.5205 115.941 13.8077C117.29 14.0661 118.768 14.5543 120.375 15.2722L118.783 19.7949C117.376 19.2493 116.157 18.8617 115.123 18.6319C114.119 18.3735 113.114 18.2443 112.11 18.2443C109.871 18.2443 108.25 18.8904 107.245 20.1826C106.241 21.4461 105.739 23.169 105.739 25.3514V31.5109C105.739 33.5784 106.241 35.2727 107.245 36.5936C108.279 37.9145 109.886 38.575 112.067 38.575C112.727 38.575 113.444 38.5175 114.219 38.4027C114.994 38.2878 115.74 38.1299 116.458 37.9289V31.5109H111.723V26.9882H121.15V41.2025Z" fill="white"/>
<path d="M146.96 13.8077L138.005 31.3386V43.0977H132.84V31.4248L123.799 13.8077H129.31L135.638 26.299L141.622 13.8077H146.96Z" fill="white"/>
<path d="M14.981 83.454H5.16585V94.6962H0V65.4062H16.2724V70.3597H5.16585V78.5006H14.981V83.454Z" fill="white"/>
<path d="M26.9004 94.6962H21.7346V65.4062H26.9004V94.6962Z" fill="white"/>
<path d="M31.4901 70.3597V65.4062H53.0145V70.3597H44.8352V94.6962H39.6694V70.3597H31.4901Z" fill="white"/>
<path d="M57.6365 94.6962V65.4062H62.3719C64.6391 68.3639 66.7915 71.4939 68.8292 74.7962C70.8668 78.0698 72.7179 81.4439 74.3825 84.9185L73.995 76.1746V65.4062H78.9456V94.6962H74.2103C72.3735 91.078 70.465 87.4455 68.4848 83.7986C66.5332 80.123 64.4526 76.6628 62.2427 73.4179L62.5871 83.4971V94.6962H57.6365Z" fill="white"/>
<path d="M103.983 89.7428V94.6962H87.0223V65.4062H103.553V70.3597H92.1881V77.3807H102.262V82.3341H92.1881V89.7428H103.983Z" fill="white"/>
<path d="M116.473 90.3458C119.802 90.3458 121.467 89.111 121.467 86.6415C121.467 85.6364 121.209 84.8467 120.692 84.2724C120.204 83.6981 119.286 83.1956 117.937 82.7648L114.407 81.6019C110.188 80.2235 108.079 77.4524 108.079 73.2887C108.079 70.8765 108.825 68.8952 110.317 67.3445C111.838 65.7651 114.206 64.9755 117.42 64.9755C118.769 64.9755 120.104 65.1334 121.424 65.4493C122.744 65.7364 124.15 66.2102 125.643 66.8707L124.05 71.3073C122.672 70.7617 121.496 70.374 120.52 70.1443C119.573 69.8859 118.597 69.7566 117.593 69.7566C116.272 69.7566 115.225 70.0007 114.45 70.4889C113.704 70.9483 113.331 71.7954 113.331 73.0302C113.331 73.9491 113.589 74.7101 114.106 75.3131C114.651 75.8874 115.541 76.3756 116.775 76.7776L120.305 77.9406C122.428 78.6585 124.021 79.7066 125.083 81.085C126.174 82.4346 126.719 84.2293 126.719 86.4692C126.719 89.0536 125.901 91.1498 124.265 92.7579C122.629 94.3373 120.061 95.127 116.559 95.127C115.182 95.127 113.747 94.969 112.255 94.6531C110.791 94.3086 109.184 93.7342 107.433 92.9302L109.026 88.4936C110.633 89.1828 111.996 89.671 113.116 89.9581C114.263 90.2166 115.383 90.3458 116.473 90.3458Z" fill="white"/>
<path d="M138.754 90.3458C142.084 90.3458 143.748 89.111 143.748 86.6415C143.748 85.6364 143.49 84.8467 142.973 84.2724C142.485 83.6981 141.567 83.1956 140.218 82.7648L136.688 81.6019C132.469 80.2235 130.36 77.4524 130.36 73.2887C130.36 70.8765 131.106 68.8952 132.598 67.3445C134.119 65.7651 136.487 64.9755 139.701 64.9755C141.05 64.9755 142.385 65.1334 143.705 65.4493C145.025 65.7364 146.431 66.2102 147.924 66.8707L146.331 71.3073C144.953 70.7617 143.777 70.374 142.801 70.1443C141.854 69.8859 140.878 69.7566 139.874 69.7566C138.554 69.7566 137.506 70.0007 136.731 70.4889C135.985 70.9483 135.612 71.7954 135.612 73.0302C135.612 73.9491 135.87 74.7101 136.387 75.3131C136.932 75.8874 137.822 76.3756 139.056 76.7776L142.586 77.9406C144.709 78.6585 146.302 79.7066 147.364 81.085C148.455 82.4346 149 84.2293 149 86.4692C149 89.0536 148.182 91.1498 146.546 92.7579C144.91 94.3373 142.342 95.127 138.84 95.127C137.463 95.127 136.028 94.969 134.536 94.6531C133.072 94.3086 131.465 93.7342 129.714 92.9302L131.307 88.4936C132.914 89.1828 134.277 89.671 135.397 89.9581C136.545 90.2166 137.664 90.3458 138.754 90.3458Z" fill="white"/>
</svg>
