<svg width="213" height="155" viewBox="0 0 213 155" fill="none" xmlns="http://www.w3.org/2000/svg">
<circle cx="106.386" cy="77.5" r="77.5" fill="#FF7514"/>
<path d="M24.1405 54.2422V61.2862H0V19.6352H23.5278V26.6791H7.35243V36.6631H21.6897V43.707H7.35243V54.2422H24.1405Z" fill="white"/>
<path d="M32.849 61.2862V19.6352H39.5887C42.8156 23.8411 45.8791 28.2921 48.7792 32.988C51.6794 37.6431 54.314 42.4411 56.6831 47.3821L56.1317 34.9481V19.6352H63.1777V61.2862H56.438C53.8238 56.141 51.1075 50.9755 48.2891 45.7896C45.5115 40.5628 42.5501 35.6422 39.4049 31.028L39.895 45.3608V61.2862H32.849Z" fill="white"/>
<path d="M98.8135 54.2422V61.2862H74.6731V19.6352H98.2008V26.6791H82.0255V36.6631H96.3627V43.707H82.0255V54.2422H98.8135Z" fill="white"/>
<path d="M114.874 45.9733V61.2862H107.522V19.6352H121.43C125.638 19.6352 128.865 20.7173 131.111 22.8815C133.398 25.0049 134.542 27.8633 134.542 31.4567V34.0905C134.542 36.4589 134.032 38.5415 133.01 40.3382C131.989 42.1349 130.519 43.5028 128.599 44.442C131.948 50.1588 134.808 55.7735 137.177 61.2862H128.783C126.74 56.1819 124.31 51.0776 121.492 45.9733H114.874ZM121.43 26.3729H114.874V39.2357H121.43C123.228 39.2357 124.596 38.7865 125.535 37.8881C126.516 36.9489 127.006 35.6831 127.006 34.0905V31.4567C127.006 29.905 126.516 28.68 125.535 27.7817C124.596 26.8425 123.228 26.3729 121.43 26.3729Z" fill="white"/>
<path d="M172.43 58.5911C171.409 59.2036 169.714 59.9182 167.345 60.7349C165.016 61.5107 162.28 61.8987 159.135 61.8987C155.581 61.8987 152.599 61.1637 150.189 59.6936C147.82 58.2236 146.023 56.2023 144.797 53.6297C143.572 51.0572 142.959 48.1171 142.959 44.8095V36.0506C142.959 32.6613 143.572 29.7009 144.797 27.1691C146.023 24.5966 147.84 22.5957 150.25 21.1665C152.701 19.7373 155.765 19.0227 159.441 19.0227C161.238 19.0227 163.097 19.2269 165.016 19.6352C166.936 20.0027 169.04 20.6969 171.327 21.7178L169.06 28.1492C167.059 27.3733 165.323 26.822 163.852 26.4954C162.423 26.1279 160.993 25.9441 159.563 25.9441C156.377 25.9441 154.07 26.8629 152.64 28.7004C151.21 30.4971 150.495 32.9472 150.495 36.0506V44.8095C150.495 47.7496 151.21 50.1588 152.64 52.0372C154.11 53.9156 156.398 54.8548 159.502 54.8548C160.442 54.8548 161.463 54.7731 162.566 54.6098C163.669 54.4464 164.731 54.2218 165.752 53.936V44.8095H159.012V38.3781H172.43V58.5911Z" fill="white"/>
<path d="M209.164 19.6352L196.42 44.5645V61.2862H189.067V44.687L176.201 19.6352H184.043L193.05 37.3981L201.567 19.6352H209.164Z" fill="white"/>
<path d="M21.322 118.674H7.35243V134.66H0V93.0093H23.1601V100.053H7.35243V111.63H21.322V118.674Z" fill="white"/>
<path d="M38.2867 134.66H30.9343V93.0093H38.2867V134.66Z" fill="white"/>
<path d="M44.8192 100.053V93.0093H75.4543V100.053H63.8129V134.66H56.4605V100.053H44.8192Z" fill="white"/>
<path d="M82.0327 134.66V93.0093H88.7724C91.9993 97.2152 95.0628 101.666 97.9629 106.362C100.863 111.017 103.498 115.815 105.867 120.756L105.315 108.322V93.0093H112.361V134.66H105.622C103.008 129.515 100.291 124.35 97.4728 119.164C94.6952 113.937 91.7338 109.016 88.5886 104.402L89.0788 118.735V134.66H82.0327Z" fill="white"/>
<path d="M147.997 127.616V134.66H123.857V93.0093H147.385V100.053H131.209V110.037H145.546V117.081H131.209V127.616H147.997Z" fill="white"/>
<path d="M165.774 128.474C170.512 128.474 172.881 126.718 172.881 123.206C172.881 121.777 172.513 120.654 171.778 119.837C171.084 119.021 169.777 118.306 167.857 117.694L162.833 116.04C156.828 114.08 153.826 110.139 153.826 104.218C153.826 100.788 154.888 97.9706 157.012 95.7656C159.177 93.5197 162.547 92.3967 167.122 92.3967C169.041 92.3967 170.941 92.6213 172.82 93.0705C174.699 93.4788 176.7 94.1526 178.824 95.0918L176.557 101.401C174.597 100.625 172.922 100.074 171.533 99.7469C170.185 99.3794 168.796 99.1956 167.367 99.1956C165.488 99.1956 163.997 99.5427 162.894 100.237C161.832 100.89 161.301 102.095 161.301 103.851C161.301 105.157 161.669 106.24 162.404 107.097C163.18 107.914 164.446 108.608 166.203 109.18L171.227 110.833C174.249 111.854 176.516 113.345 178.028 115.305C179.58 117.224 180.356 119.776 180.356 122.961C180.356 126.636 179.192 129.617 176.864 131.904C174.535 134.15 170.88 135.273 165.896 135.273C163.936 135.273 161.893 135.048 159.769 134.599C157.686 134.109 155.399 133.292 152.907 132.149L155.174 125.84C157.461 126.82 159.402 127.514 160.995 127.923C162.629 128.29 164.222 128.474 165.774 128.474Z" fill="white"/>
<path d="M197.486 128.474C202.224 128.474 204.593 126.718 204.593 123.206C204.593 121.777 204.226 120.654 203.49 119.837C202.796 119.021 201.489 118.306 199.569 117.694L194.545 116.04C188.54 114.08 185.538 110.139 185.538 104.218C185.538 100.788 186.6 97.9706 188.724 95.7656C190.889 93.5197 194.259 92.3967 198.834 92.3967C200.754 92.3967 202.653 92.6213 204.532 93.0705C206.411 93.4788 208.412 94.1526 210.536 95.0918L208.269 101.401C206.309 100.625 204.634 100.074 203.245 99.7469C201.897 99.3794 200.509 99.1956 199.079 99.1956C197.2 99.1956 195.709 99.5427 194.606 100.237C193.544 100.89 193.013 102.095 193.013 103.851C193.013 105.157 193.381 106.24 194.116 107.097C194.892 107.914 196.158 108.608 197.915 109.18L202.939 110.833C205.962 111.854 208.229 113.345 209.74 115.305C211.292 117.224 212.068 119.776 212.068 122.961C212.068 126.636 210.904 129.617 208.576 131.904C206.248 134.15 202.592 135.273 197.608 135.273C195.648 135.273 193.605 135.048 191.481 134.599C189.398 134.109 187.111 133.292 184.619 132.149L186.886 125.84C189.174 126.82 191.114 127.514 192.707 127.923C194.341 128.29 195.934 128.474 197.486 128.474Z" fill="white"/>
</svg>
