<svg width="516" height="407" viewBox="0 0 516 407" fill="none" xmlns="http://www.w3.org/2000/svg">
<rect x="0.5" y="406.5" width="399.148" height="515" rx="199.574" transform="rotate(-90 0.5 406.5)" stroke="#333333"/>
<g clip-path="url(#clip0_9_4987)">
<rect x="42" y="372" width="335.741" height="432.509" rx="167.87" transform="rotate(-90 42 372)" fill="#7B3DFF"/>
<circle cx="258" cy="204" r="110" fill="#FF7514"/>
<path d="M141.264 170.989V180.987H107V121.869H140.394V131.867H117.436V146.038H137.785V156.036H117.436V170.989H141.264Z" fill="white"/>
<path d="M153.624 180.987V121.869H163.19C167.771 127.839 172.119 134.157 176.235 140.822C180.351 147.429 184.091 154.239 187.453 161.252L186.671 143.604V121.869H196.672V180.987H187.106C183.395 173.684 179.54 166.352 175.539 158.992C171.597 151.573 167.394 144.589 162.93 138.04L163.625 158.383V180.987H153.624Z" fill="white"/>
<path d="M247.251 170.989V180.987H212.988V121.869H246.382V131.867H223.423V146.038H243.773V156.036H223.423V170.989H247.251Z" fill="white"/>
<path d="M270.048 159.252V180.987H259.612V121.869H279.353C285.324 121.869 289.904 123.405 293.093 126.477C296.34 129.491 297.963 133.548 297.963 138.648V142.387C297.963 145.748 297.238 148.704 295.789 151.254C294.34 153.804 292.253 155.746 289.528 157.079C294.282 165.193 298.34 173.162 301.703 180.987H289.788C286.89 173.742 283.44 166.497 279.44 159.252H270.048ZM279.353 131.432H270.048V149.689H279.353C281.904 149.689 283.846 149.052 285.179 147.777C286.571 146.444 287.267 144.647 287.267 142.387V138.648C287.267 136.446 286.571 134.707 285.179 133.432C283.846 132.099 281.904 131.432 279.353 131.432Z" fill="white"/>
<path d="M351.74 177.162C350.29 178.031 347.884 179.045 344.522 180.204C341.217 181.306 337.333 181.856 332.868 181.856C327.824 181.856 323.592 180.813 320.172 178.726C316.809 176.64 314.258 173.771 312.519 170.12C310.779 166.468 309.91 162.295 309.91 157.601V145.169C309.91 140.358 310.779 136.156 312.519 132.563C314.258 128.911 316.838 126.071 320.259 124.043C323.737 122.014 328.085 121 333.303 121C335.854 121 338.492 121.29 341.217 121.869C343.942 122.391 346.928 123.376 350.174 124.825L346.957 133.954C344.116 132.852 341.652 132.07 339.565 131.606C337.535 131.085 335.506 130.824 333.477 130.824C328.955 130.824 325.679 132.128 323.65 134.736C321.621 137.286 320.606 140.764 320.606 145.169V157.601C320.606 161.774 321.621 165.193 323.65 167.859C325.737 170.525 328.984 171.858 333.39 171.858C334.724 171.858 336.173 171.742 337.738 171.511C339.304 171.279 340.811 170.96 342.26 170.554V157.601H332.694V148.472H351.74V177.162Z" fill="white"/>
<path d="M403.878 121.869L385.789 157.253V180.987H375.354V157.427L357.091 121.869H368.223L381.006 147.081L393.094 121.869H403.878Z" fill="white"/>
<path d="M137.264 262.44H117.436V285.131H107V226.013H139.872V236.011H117.436V252.442H137.264V262.44Z" fill="white"/>
<path d="M161.342 285.131H150.907V226.013H161.342V285.131Z" fill="white"/>
<path d="M170.614 236.011V226.013H214.096V236.011H197.573V285.131H187.137V236.011H170.614Z" fill="white"/>
<path d="M223.433 285.131V226.013H233C237.58 231.983 241.928 238.3 246.044 244.966C250.16 251.573 253.9 258.383 257.263 265.396L256.48 247.748V226.013H266.481V285.131H256.915C253.204 277.828 249.349 270.496 245.348 263.135C241.406 255.717 237.203 248.733 232.739 242.184L233.434 262.527V285.131H223.433Z" fill="white"/>
<path d="M317.061 275.133V285.131H282.797V226.013H316.191V236.011H293.232V250.182H313.582V260.18H293.232V275.133H317.061Z" fill="white"/>
<path d="M342.292 276.35C349.017 276.35 352.38 273.858 352.38 268.873C352.38 266.845 351.858 265.251 350.814 264.092C349.829 262.933 347.973 261.918 345.249 261.049L338.117 258.702C329.595 255.92 325.334 250.327 325.334 241.923C325.334 237.054 326.841 233.055 329.856 229.925C332.929 226.738 337.712 225.144 344.205 225.144C346.93 225.144 349.626 225.463 352.293 226.1C354.96 226.68 357.8 227.636 360.815 228.969L357.597 237.924C354.815 236.822 352.438 236.04 350.466 235.576C348.553 235.055 346.582 234.794 344.553 234.794C341.886 234.794 339.77 235.286 338.204 236.272C336.697 237.199 335.943 238.909 335.943 241.401C335.943 243.256 336.465 244.792 337.509 246.009C338.61 247.168 340.408 248.153 342.901 248.965L350.032 251.312C354.322 252.761 357.539 254.876 359.685 257.658C361.888 260.382 362.989 264.005 362.989 268.526C362.989 273.742 361.337 277.973 358.032 281.218C354.728 284.406 349.539 286 342.466 286C339.683 286 336.784 285.681 333.769 285.044C330.812 284.348 327.566 283.189 324.029 281.566L327.247 272.612C330.494 274.003 333.247 274.988 335.509 275.568C337.828 276.089 340.089 276.35 342.292 276.35Z" fill="white"/>
<path d="M387.303 276.35C394.028 276.35 397.39 273.858 397.39 268.873C397.39 266.845 396.869 265.251 395.825 264.092C394.839 262.933 392.984 261.918 390.259 261.049L383.128 258.702C374.606 255.92 370.345 250.327 370.345 241.923C370.345 237.054 371.852 233.055 374.867 229.925C377.939 226.738 382.722 225.144 389.216 225.144C391.941 225.144 394.637 225.463 397.303 226.1C399.97 226.68 402.811 227.636 405.826 228.969L402.608 237.924C399.825 236.822 397.448 236.04 395.477 235.576C393.564 235.055 391.593 234.794 389.564 234.794C386.897 234.794 384.781 235.286 383.215 236.272C381.708 237.199 380.954 238.909 380.954 241.401C380.954 243.256 381.476 244.792 382.52 246.009C383.621 247.168 385.418 248.153 387.911 248.965L395.042 251.312C399.333 252.761 402.55 254.876 404.695 257.658C406.898 260.382 408 264.005 408 268.526C408 273.742 406.348 277.973 403.043 281.218C399.738 284.406 394.55 286 387.476 286C384.694 286 381.795 285.681 378.78 285.044C375.823 284.348 372.577 283.189 369.04 281.566L372.258 272.612C375.504 274.003 378.258 274.988 380.519 275.568C382.838 276.089 385.099 276.35 387.303 276.35Z" fill="white"/>
</g>
<path d="M29.4268 353.555L51.8687 347.878L42.31 326.77L60.7359 340.798L71.2584 320.155L71.7932 343.324L94.4732 338.691L76.7142 353.555L94.4732 368.42L71.7932 363.786L71.2584 386.956L60.7359 366.313L42.31 380.34L51.8687 359.233L29.4268 353.555Z" fill="#333333"/>
<path d="M392.665 48.8912C391.043 48.7124 391.043 46.5283 392.665 46.3495L406.275 44.8513C423.849 42.9166 437.705 30.0612 439.79 13.7563L441.405 1.12904C441.597 -0.376328 443.952 -0.376328 444.144 1.12904L445.759 13.7563C447.844 30.0612 461.7 42.9166 479.274 44.8513L492.884 46.3495C494.506 46.5283 494.506 48.7124 492.884 48.8912L479.274 50.3895C461.7 52.3241 447.844 65.1795 445.759 81.4846L444.144 94.1118C443.952 95.617 441.597 95.617 441.405 94.1118L439.79 81.4846C437.705 65.1795 423.849 52.3241 406.275 50.3895L392.665 48.8912Z" fill="#333333"/>
<defs>
<clipPath id="clip0_9_4987">
<rect x="42" y="372" width="335.741" height="432.509" rx="167.87" transform="rotate(-90 42 372)" fill="white"/>
</clipPath>
</defs>
</svg>
